G04*
G04 #@! TF.GenerationSoftware,Altium Limited,Altium Designer,24.1.2 (44)*
G04*
G04 Layer_Color=16711935*
%FSLAX44Y44*%
%MOMM*%
G71*
G04*
G04 #@! TF.SameCoordinates,91C2BA71-A146-4584-BBA7-DB63CFD40499*
G04*
G04*
G04 #@! TF.FilePolarity,Negative*
G04*
G01*
G75*
%ADD13C,1.8032*%
G04:AMPARAMS|DCode=14|XSize=1.8032mm|YSize=1.8032mm|CornerRadius=0.5016mm|HoleSize=0mm|Usage=FLASHONLY|Rotation=0.000|XOffset=0mm|YOffset=0mm|HoleType=Round|Shape=RoundedRectangle|*
%AMROUNDEDRECTD14*
21,1,1.8032,0.8000,0,0,0.0*
21,1,0.8000,1.8032,0,0,0.0*
1,1,1.0032,0.4000,-0.4000*
1,1,1.0032,-0.4000,-0.4000*
1,1,1.0032,-0.4000,0.4000*
1,1,1.0032,0.4000,0.4000*
%
%ADD14ROUNDEDRECTD14*%
%ADD15C,1.7232*%
G04:AMPARAMS|DCode=16|XSize=1.7232mm|YSize=1.7232mm|CornerRadius=0.4816mm|HoleSize=0mm|Usage=FLASHONLY|Rotation=90.000|XOffset=0mm|YOffset=0mm|HoleType=Round|Shape=RoundedRectangle|*
%AMROUNDEDRECTD16*
21,1,1.7232,0.7600,0,0,90.0*
21,1,0.7600,1.7232,0,0,90.0*
1,1,0.9632,0.3800,0.3800*
1,1,0.9632,0.3800,-0.3800*
1,1,0.9632,-0.3800,-0.3800*
1,1,0.9632,-0.3800,0.3800*
%
%ADD16ROUNDEDRECTD16*%
D13*
X222250Y454660D02*
D03*
X171450D02*
D03*
X120650D02*
D03*
X146050D02*
D03*
X196850D02*
D03*
X247650D02*
D03*
X273050D02*
D03*
X222250Y402336D02*
D03*
X171450D02*
D03*
X120650D02*
D03*
X146050D02*
D03*
X196850D02*
D03*
X247650D02*
D03*
X273050D02*
D03*
D14*
X95250Y454660D02*
D03*
Y402336D02*
D03*
D15*
X289560Y288290D02*
D03*
Y262890D02*
D03*
Y161290D02*
D03*
Y135890D02*
D03*
Y186690D02*
D03*
Y212090D02*
D03*
Y237490D02*
D03*
X60960Y288290D02*
D03*
Y262890D02*
D03*
Y161290D02*
D03*
Y135890D02*
D03*
Y186690D02*
D03*
Y212090D02*
D03*
Y237490D02*
D03*
D16*
X289560Y110490D02*
D03*
X60960D02*
D03*
M02*
