%TF.GenerationSoftware,Altium Limited,Altium Designer,24.1.2 (44)*%
G04 Layer_Physical_Order=2*
G04 Layer_Color=16711680*
%FSLAX45Y45*%
%MOMM*%
%TF.SameCoordinates,5EC3BBD7-C06D-4BA5-B086-9FF2EE8CE176*%
%TF.FilePolarity,Positive*%
%TF.FileFunction,Copper,L2,Bot,Signal*%
%TF.Part,Single*%
G01*
G75*
%TA.AperFunction,ComponentPad*%
%ADD11C,1.60000*%
G04:AMPARAMS|DCode=12|XSize=1.6mm|YSize=1.6mm|CornerRadius=0.4mm|HoleSize=0mm|Usage=FLASHONLY|Rotation=0.000|XOffset=0mm|YOffset=0mm|HoleType=Round|Shape=RoundedRectangle|*
%AMROUNDEDRECTD12*
21,1,1.60000,0.80000,0,0,0.0*
21,1,0.80000,1.60000,0,0,0.0*
1,1,0.80000,0.40000,-0.40000*
1,1,0.80000,-0.40000,-0.40000*
1,1,0.80000,-0.40000,0.40000*
1,1,0.80000,0.40000,0.40000*
%
%ADD12ROUNDEDRECTD12*%
%ADD13C,1.52000*%
G04:AMPARAMS|DCode=14|XSize=1.52mm|YSize=1.52mm|CornerRadius=0.38mm|HoleSize=0mm|Usage=FLASHONLY|Rotation=90.000|XOffset=0mm|YOffset=0mm|HoleType=Round|Shape=RoundedRectangle|*
%AMROUNDEDRECTD14*
21,1,1.52000,0.76000,0,0,90.0*
21,1,0.76000,1.52000,0,0,90.0*
1,1,0.76000,0.38000,0.38000*
1,1,0.76000,0.38000,-0.38000*
1,1,0.76000,-0.38000,-0.38000*
1,1,0.76000,-0.38000,0.38000*
%
%ADD14ROUNDEDRECTD14*%
%TA.AperFunction,NonConductor*%
%ADD15C,0.25400*%
D11*
X2222500Y4546600D02*
D03*
X1714500D02*
D03*
X1206500D02*
D03*
X1460500D02*
D03*
X1968500D02*
D03*
X2476500D02*
D03*
X2730500D02*
D03*
X2222500Y4023360D02*
D03*
X1714500D02*
D03*
X1206500D02*
D03*
X1460500D02*
D03*
X1968500D02*
D03*
X2476500D02*
D03*
X2730500D02*
D03*
D12*
X952500Y4546600D02*
D03*
Y4023360D02*
D03*
D13*
X2895600Y2882900D02*
D03*
Y2628900D02*
D03*
Y1612900D02*
D03*
Y1358900D02*
D03*
Y1866900D02*
D03*
Y2120900D02*
D03*
Y2374900D02*
D03*
X609600Y2882900D02*
D03*
Y2628900D02*
D03*
Y1612900D02*
D03*
Y1358900D02*
D03*
Y1866900D02*
D03*
Y2120900D02*
D03*
Y2374900D02*
D03*
D14*
X2895600Y1104900D02*
D03*
X609600D02*
D03*
D15*
X2345289Y380967D02*
X2413000D01*
Y279400D01*
X2345289D01*
X2413000Y330183D02*
X2379144D01*
X2311433Y279400D02*
X2243721Y347111D01*
X2209866Y279400D02*
Y380967D01*
X2159082D01*
X2142154Y364039D01*
Y330183D01*
X2159082Y313256D01*
X2209866D01*
X2108298Y347111D02*
X2091370D01*
Y330183D01*
X2108298D01*
Y347111D01*
Y296328D02*
X2091370D01*
Y279400D01*
X2108298D01*
Y296328D01*
X1922092Y279400D02*
Y380967D01*
X1888236Y347111D01*
X1854380Y380967D01*
Y279400D01*
X1820524D02*
Y296328D01*
X1803597D01*
Y279400D01*
X1820524D01*
X1634318D02*
Y347111D01*
X1600462Y380967D01*
X1566606Y347111D01*
Y279400D01*
Y330183D01*
X1634318D01*
X1431183Y380967D02*
Y279400D01*
Y330183D01*
X1363472D01*
Y380967D01*
Y279400D01*
X1312688Y347111D02*
X1278833D01*
X1261905Y330183D01*
Y279400D01*
X1312688D01*
X1329616Y296328D01*
X1312688Y313256D01*
X1261905D01*
X1211121Y364039D02*
Y347111D01*
X1228049D01*
X1194193D01*
X1211121D01*
Y296328D01*
X1194193Y279400D01*
X1143409D02*
X1109554D01*
X1126482D01*
Y347111D01*
X1143409D01*
X1058770Y279400D02*
Y347111D01*
X1041842D01*
X1024914Y330183D01*
Y279400D01*
Y330183D01*
X1007987Y347111D01*
X991059Y330183D01*
Y279400D01*
X2345289Y181995D02*
X2362217Y198923D01*
X2396072D01*
X2413000Y181995D01*
Y114283D01*
X2396072Y97356D01*
X2362217D01*
X2345289Y114283D01*
X2311433Y165067D02*
Y114283D01*
X2294505Y97356D01*
X2243721D01*
Y80428D01*
X2260649Y63500D01*
X2277577D01*
X2243721Y97356D02*
Y165067D01*
X2209866Y198923D02*
Y97356D01*
X2159082D01*
X2142154Y114283D01*
Y131211D01*
Y148139D01*
X2159082Y165067D01*
X2209866D01*
X2057515Y97356D02*
X2091370D01*
X2108298Y114283D01*
Y148139D01*
X2091370Y165067D01*
X2057515D01*
X2040587Y148139D01*
Y131211D01*
X2108298D01*
X2006731Y165067D02*
Y97356D01*
Y131211D01*
X1989803Y148139D01*
X1972875Y165067D01*
X1955948D01*
X1905164Y198923D02*
Y97356D01*
X1854380D01*
X1837453Y114283D01*
Y181995D01*
X1854380Y198923D01*
X1905164D01*
X1803597Y165067D02*
Y97356D01*
Y131211D01*
X1786669Y148139D01*
X1769741Y165067D01*
X1752813D01*
X1702029Y97356D02*
X1668174D01*
X1685102D01*
Y165067D01*
X1702029D01*
X1617390D02*
X1583534Y97356D01*
X1549679Y165067D01*
X1465039Y97356D02*
X1498895D01*
X1515823Y114283D01*
Y148139D01*
X1498895Y165067D01*
X1465039D01*
X1448111Y148139D01*
Y131211D01*
X1515823D01*
X1312688Y148139D02*
X1244977D01*
X1109554Y198923D02*
Y131211D01*
X1075698Y97356D01*
X1041842Y131211D01*
Y198923D01*
X1007987Y181995D02*
X991059Y198923D01*
X957203D01*
X940275Y181995D01*
Y114283D01*
X957203Y97356D01*
X991059D01*
X1007987Y114283D01*
Y181995D01*
%TF.MD5,a16f199301423070c628a004cccca03b*%
M02*
