G04*
G04 #@! TF.GenerationSoftware,Altium Limited,Altium Designer,24.1.2 (44)*
G04*
G04 Layer_Physical_Order=2*
G04 Layer_Color=16711680*
%FSLAX44Y44*%
%MOMM*%
G71*
G04*
G04 #@! TF.SameCoordinates,91C2BA71-A146-4584-BBA7-DB63CFD40499*
G04*
G04*
G04 #@! TF.FilePolarity,Positive*
G04*
G01*
G75*
%ADD11C,0.2540*%
%ADD18C,1.6000*%
G04:AMPARAMS|DCode=19|XSize=1.6mm|YSize=1.6mm|CornerRadius=0.4mm|HoleSize=0mm|Usage=FLASHONLY|Rotation=0.000|XOffset=0mm|YOffset=0mm|HoleType=Round|Shape=RoundedRectangle|*
%AMROUNDEDRECTD19*
21,1,1.6000,0.8000,0,0,0.0*
21,1,0.8000,1.6000,0,0,0.0*
1,1,0.8000,0.4000,-0.4000*
1,1,0.8000,-0.4000,-0.4000*
1,1,0.8000,-0.4000,0.4000*
1,1,0.8000,0.4000,0.4000*
%
%ADD19ROUNDEDRECTD19*%
%ADD20C,1.5200*%
G04:AMPARAMS|DCode=21|XSize=1.52mm|YSize=1.52mm|CornerRadius=0.38mm|HoleSize=0mm|Usage=FLASHONLY|Rotation=90.000|XOffset=0mm|YOffset=0mm|HoleType=Round|Shape=RoundedRectangle|*
%AMROUNDEDRECTD21*
21,1,1.5200,0.7600,0,0,90.0*
21,1,0.7600,1.5200,0,0,90.0*
1,1,0.7600,0.3800,0.3800*
1,1,0.7600,0.3800,-0.3800*
1,1,0.7600,-0.3800,-0.3800*
1,1,0.7600,-0.3800,0.3800*
%
%ADD21ROUNDEDRECTD21*%
D11*
X234529Y38097D02*
X241300D01*
Y27940D01*
X234529D01*
X241300Y33018D02*
X237914D01*
X231143Y27940D02*
X224372Y34711D01*
X220987Y27940D02*
Y38097D01*
X215908D01*
X214215Y36404D01*
Y33018D01*
X215908Y31326D01*
X220987D01*
X210830Y34711D02*
X209137D01*
Y33018D01*
X210830D01*
Y34711D01*
Y29633D02*
X209137D01*
Y27940D01*
X210830D01*
Y29633D01*
X192209Y27940D02*
Y38097D01*
X188824Y34711D01*
X185438Y38097D01*
Y27940D01*
X182052D02*
Y29633D01*
X180360D01*
Y27940D01*
X182052D01*
X163432D02*
Y34711D01*
X160046Y38097D01*
X156661Y34711D01*
Y27940D01*
Y33018D01*
X163432D01*
X143118Y38097D02*
Y27940D01*
Y33018D01*
X136347D01*
Y38097D01*
Y27940D01*
X131269Y34711D02*
X127883D01*
X126191Y33018D01*
Y27940D01*
X131269D01*
X132962Y29633D01*
X131269Y31326D01*
X126191D01*
X121112Y36404D02*
Y34711D01*
X122805D01*
X119419D01*
X121112D01*
Y29633D01*
X119419Y27940D01*
X114341D02*
X110955D01*
X112648D01*
Y34711D01*
X114341D01*
X105877Y27940D02*
Y34711D01*
X104184D01*
X102491Y33018D01*
Y27940D01*
Y33018D01*
X100799Y34711D01*
X99106Y33018D01*
Y27940D01*
X234529Y18199D02*
X236222Y19892D01*
X239607D01*
X241300Y18199D01*
Y11428D01*
X239607Y9736D01*
X236222D01*
X234529Y11428D01*
X231143Y16507D02*
Y11428D01*
X229450Y9736D01*
X224372D01*
Y8043D01*
X226065Y6350D01*
X227758D01*
X224372Y9736D02*
Y16507D01*
X220987Y19892D02*
Y9736D01*
X215908D01*
X214215Y11428D01*
Y13121D01*
Y14814D01*
X215908Y16507D01*
X220987D01*
X205751Y9736D02*
X209137D01*
X210830Y11428D01*
Y14814D01*
X209137Y16507D01*
X205751D01*
X204059Y14814D01*
Y13121D01*
X210830D01*
X200673Y16507D02*
Y9736D01*
Y13121D01*
X198980Y14814D01*
X197288Y16507D01*
X195595D01*
X190516Y19892D02*
Y9736D01*
X185438D01*
X183745Y11428D01*
Y18199D01*
X185438Y19892D01*
X190516D01*
X180360Y16507D02*
Y9736D01*
Y13121D01*
X178667Y14814D01*
X176974Y16507D01*
X175281D01*
X170203Y9736D02*
X166817D01*
X168510D01*
Y16507D01*
X170203D01*
X161739D02*
X158353Y9736D01*
X154968Y16507D01*
X146504Y9736D02*
X149889D01*
X151582Y11428D01*
Y14814D01*
X149889Y16507D01*
X146504D01*
X144811Y14814D01*
Y13121D01*
X151582D01*
X131269Y14814D02*
X124498D01*
X110955Y19892D02*
Y13121D01*
X107570Y9736D01*
X104184Y13121D01*
Y19892D01*
X100799Y18199D02*
X99106Y19892D01*
X95720D01*
X94028Y18199D01*
Y11428D01*
X95720Y9736D01*
X99106D01*
X100799Y11428D01*
Y18199D01*
D18*
X222250Y454660D02*
D03*
X171450D02*
D03*
X120650D02*
D03*
X146050D02*
D03*
X196850D02*
D03*
X247650D02*
D03*
X273050D02*
D03*
X222250Y402336D02*
D03*
X171450D02*
D03*
X120650D02*
D03*
X146050D02*
D03*
X196850D02*
D03*
X247650D02*
D03*
X273050D02*
D03*
D19*
X95250Y454660D02*
D03*
Y402336D02*
D03*
D20*
X289560Y288290D02*
D03*
Y262890D02*
D03*
Y161290D02*
D03*
Y135890D02*
D03*
Y186690D02*
D03*
Y212090D02*
D03*
Y237490D02*
D03*
X60960Y288290D02*
D03*
Y262890D02*
D03*
Y161290D02*
D03*
Y135890D02*
D03*
Y186690D02*
D03*
Y212090D02*
D03*
Y237490D02*
D03*
D21*
X289560Y110490D02*
D03*
X60960D02*
D03*
M02*
