G04*
G04 #@! TF.GenerationSoftware,Altium Limited,Altium Designer,24.1.2 (44)*
G04*
G04 Layer_Physical_Order=1*
G04 Layer_Color=255*
%FSLAX44Y44*%
%MOMM*%
G71*
G04*
G04 #@! TF.SameCoordinates,91C2BA71-A146-4584-BBA7-DB63CFD40499*
G04*
G04*
G04 #@! TF.FilePolarity,Positive*
G04*
G01*
G75*
%ADD17C,0.5080*%
%ADD18C,1.6000*%
G04:AMPARAMS|DCode=19|XSize=1.6mm|YSize=1.6mm|CornerRadius=0.4mm|HoleSize=0mm|Usage=FLASHONLY|Rotation=0.000|XOffset=0mm|YOffset=0mm|HoleType=Round|Shape=RoundedRectangle|*
%AMROUNDEDRECTD19*
21,1,1.6000,0.8000,0,0,0.0*
21,1,0.8000,1.6000,0,0,0.0*
1,1,0.8000,0.4000,-0.4000*
1,1,0.8000,-0.4000,-0.4000*
1,1,0.8000,-0.4000,0.4000*
1,1,0.8000,0.4000,0.4000*
%
%ADD19ROUNDEDRECTD19*%
%ADD20C,1.5200*%
G04:AMPARAMS|DCode=21|XSize=1.52mm|YSize=1.52mm|CornerRadius=0.38mm|HoleSize=0mm|Usage=FLASHONLY|Rotation=90.000|XOffset=0mm|YOffset=0mm|HoleType=Round|Shape=RoundedRectangle|*
%AMROUNDEDRECTD21*
21,1,1.5200,0.7600,0,0,90.0*
21,1,0.7600,1.5200,0,0,90.0*
1,1,0.7600,0.3800,0.3800*
1,1,0.7600,0.3800,-0.3800*
1,1,0.7600,-0.3800,-0.3800*
1,1,0.7600,-0.3800,0.3800*
%
%ADD21ROUNDEDRECTD21*%
D17*
X14732Y113466D02*
Y395732D01*
X66040Y447040D02*
X86840D01*
X14732Y395732D02*
X66040Y447040D01*
X39116Y189666D02*
Y386371D01*
X22352Y391160D02*
X69342Y438150D01*
X104140D01*
X75655Y422910D02*
X168220D01*
X39116Y386371D02*
X75655Y422910D01*
X22352Y145288D02*
Y391160D01*
X30734Y388766D02*
X72498Y430530D01*
X30734Y168910D02*
Y388766D01*
X72498Y430530D02*
X142820D01*
X86840Y447040D02*
X94460Y454660D01*
X95250D01*
X142820Y430530D02*
X146050Y433760D01*
X168220Y422910D02*
X171450Y426140D01*
X104140Y438150D02*
X120650Y454660D01*
X220980Y45466D02*
X334844D01*
X337820Y48442D01*
X125476Y140970D02*
X220980Y45466D01*
X337820Y48442D02*
Y479044D01*
X314960Y71810D02*
Y462860D01*
X330200Y56570D02*
Y475888D01*
X227946Y61214D02*
X319604D01*
X133096Y145288D02*
X224790Y53594D01*
X327224D02*
X330200Y56570D01*
X319604Y61214D02*
X322580Y64190D01*
X311984Y68834D02*
X314960Y71810D01*
X231103Y68834D02*
X311984D01*
X224790Y53594D02*
X327224D01*
X322580Y64190D02*
Y470734D01*
X148336Y151601D02*
X231103Y68834D01*
X140716Y148444D02*
X227946Y61214D01*
X14732Y113466D02*
X17708Y110490D01*
X60960D01*
X31750Y135890D02*
X60960D01*
X22352Y145288D02*
X31750Y135890D01*
X30734Y168910D02*
X38354Y161290D01*
X60960D01*
X42092Y186690D02*
X60960D01*
X39116Y189666D02*
X42092Y186690D01*
X146050Y433760D02*
Y454660D01*
X60960Y237490D02*
X107225D01*
X133096Y211619D01*
X106355Y227584D02*
X125476Y208463D01*
X148336Y151601D02*
Y217932D01*
X92602Y262890D02*
X140716Y214776D01*
X77978Y288290D02*
X148336Y217932D01*
X125476Y140970D02*
Y208463D01*
X60960Y262890D02*
X92602D01*
X140716Y148444D02*
Y214776D01*
X133096Y145288D02*
Y211619D01*
X76454Y227584D02*
X106355D01*
X60960Y288290D02*
X77978D01*
X60960Y212090D02*
X76454Y227584D01*
X311984Y465836D02*
X314960Y462860D01*
X273050Y454660D02*
X284226Y465836D01*
X311984D01*
X327914Y488950D02*
X337820Y479044D01*
X250626Y473710D02*
X319604D01*
X322580Y470734D01*
X324758Y481330D02*
X330200Y475888D01*
X228600Y481330D02*
X324758D01*
X247650Y470734D02*
X250626Y473710D01*
X212344Y488950D02*
X327914D01*
X247650Y454660D02*
Y470734D01*
X222250Y474980D02*
X228600Y481330D01*
X222250Y454660D02*
Y474980D01*
X196850Y473456D02*
X212344Y488950D01*
X196850Y454660D02*
Y473456D01*
X171450Y426140D02*
Y454660D01*
X273050Y389890D02*
Y402336D01*
X255778Y291266D02*
Y372618D01*
X273050Y389890D01*
X198120Y188976D02*
X276606Y110490D01*
X289560D01*
X198120Y188976D02*
Y353060D01*
X231394Y221996D02*
Y367792D01*
X241300Y212090D02*
X289560D01*
X231394Y221996D02*
X241300Y212090D01*
X189230Y361950D02*
X198120Y353060D01*
X120904Y361950D02*
X189230D01*
X192496Y372146D02*
X206502Y358140D01*
X196887Y380746D02*
X214630Y363003D01*
X200044Y388366D02*
X223266Y365144D01*
X196850Y402336D02*
X231394Y367792D01*
X206502Y199644D02*
Y358140D01*
X222250Y388366D02*
Y402336D01*
X239014Y240466D02*
Y371602D01*
X136616Y372146D02*
X192496D01*
X222250Y388366D02*
X239014Y371602D01*
X214630Y211582D02*
Y363003D01*
X149026Y380746D02*
X196887D01*
X223266Y216662D02*
Y365144D01*
X270256Y135890D02*
X289560D01*
X185420Y388366D02*
X200044D01*
X206502Y199644D02*
X270256Y135890D01*
X146050Y383722D02*
X149026Y380746D01*
X223266Y216662D02*
X253238Y186690D01*
X264922Y161290D02*
X289560D01*
X214630Y211582D02*
X264922Y161290D01*
X253238Y186690D02*
X289560D01*
X171450Y402336D02*
X185420Y388366D01*
X258754Y288290D02*
X289560D01*
X255778Y291266D02*
X258754Y288290D01*
X247650Y265866D02*
X250626Y262890D01*
X239014Y240466D02*
X241990Y237490D01*
X247650Y265866D02*
Y402336D01*
X241990Y237490D02*
X289560D01*
X250626Y262890D02*
X289560D01*
X95250Y387604D02*
Y402336D01*
Y387604D02*
X120904Y361950D01*
X122046Y386716D02*
X136616Y372146D01*
X122046Y386716D02*
Y400940D01*
X120650Y402336D02*
X122046Y400940D01*
X146050Y383722D02*
Y402336D01*
D18*
X222250Y454660D02*
D03*
X171450D02*
D03*
X120650D02*
D03*
X146050D02*
D03*
X196850D02*
D03*
X247650D02*
D03*
X273050D02*
D03*
X222250Y402336D02*
D03*
X171450D02*
D03*
X120650D02*
D03*
X146050D02*
D03*
X196850D02*
D03*
X247650D02*
D03*
X273050D02*
D03*
D19*
X95250Y454660D02*
D03*
Y402336D02*
D03*
D20*
X289560Y288290D02*
D03*
Y262890D02*
D03*
Y161290D02*
D03*
Y135890D02*
D03*
Y186690D02*
D03*
Y212090D02*
D03*
Y237490D02*
D03*
X60960Y288290D02*
D03*
Y262890D02*
D03*
Y161290D02*
D03*
Y135890D02*
D03*
Y186690D02*
D03*
Y212090D02*
D03*
Y237490D02*
D03*
D21*
X289560Y110490D02*
D03*
X60960D02*
D03*
M02*
