G04*
G04 #@! TF.GenerationSoftware,Altium Limited,Altium Designer,24.1.2 (44)*
G04*
G04 Layer_Color=65535*
%FSLAX44Y44*%
%MOMM*%
G71*
G04*
G04 #@! TF.SameCoordinates,91C2BA71-A146-4584-BBA7-DB63CFD40499*
G04*
G04*
G04 #@! TF.FilePolarity,Positive*
G04*
G01*
G75*
%ADD10C,0.2000*%
%ADD11C,0.2540*%
%ADD12C,0.1524*%
D10*
X81050Y441210D02*
X287250D01*
X81050D02*
Y468110D01*
X287250D01*
Y441210D02*
Y468110D01*
X81050Y388886D02*
X287250D01*
X81050D02*
Y415786D01*
X287250D01*
Y388886D02*
Y415786D01*
X276060Y94040D02*
X303060D01*
Y304740D01*
X276060D02*
X303060D01*
X276060Y94040D02*
Y304740D01*
X47460Y94040D02*
X74460D01*
Y304740D01*
X47460D02*
X74460D01*
X47460Y94040D02*
Y304740D01*
D11*
X0Y0D02*
Y497840D01*
X350520D01*
Y0D02*
Y497840D01*
X0Y0D02*
X350520D01*
X100751Y38097D02*
X93980D01*
Y27940D01*
X100751D01*
X93980Y33018D02*
X97366D01*
X110908Y36404D02*
X109215Y38097D01*
X105829D01*
X104137Y36404D01*
Y34711D01*
X105829Y33018D01*
X109215D01*
X110908Y31326D01*
Y29633D01*
X109215Y27940D01*
X105829D01*
X104137Y29633D01*
X114293Y27940D02*
Y38097D01*
X119372D01*
X121065Y36404D01*
Y33018D01*
X119372Y31326D01*
X114293D01*
X124450Y36404D02*
X126143Y38097D01*
X129529D01*
X131221Y36404D01*
Y34711D01*
X129529Y33018D01*
X127836D01*
X129529D01*
X131221Y31326D01*
Y29633D01*
X129529Y27940D01*
X126143D01*
X124450Y29633D01*
X141378Y27940D02*
X134607D01*
X141378Y34711D01*
Y36404D01*
X139685Y38097D01*
X136300D01*
X134607Y36404D01*
X144764Y33018D02*
X151535D01*
X161691Y36404D02*
X159999Y38097D01*
X156613D01*
X154920Y36404D01*
Y29633D01*
X156613Y27940D01*
X159999D01*
X161691Y29633D01*
X165077Y27940D02*
Y34711D01*
X168463Y38097D01*
X171848Y34711D01*
Y27940D01*
Y33018D01*
X165077D01*
X175234Y27940D02*
Y38097D01*
X178619Y34711D01*
X182005Y38097D01*
Y27940D01*
X93980Y19892D02*
Y9736D01*
X99058D01*
X100751Y11428D01*
Y13121D01*
Y14814D01*
X99058Y16507D01*
X93980D01*
X104137D02*
Y11428D01*
X105829Y9736D01*
X110908D01*
Y8043D01*
X109215Y6350D01*
X107522D01*
X110908Y9736D02*
Y16507D01*
X114293D02*
X115986D01*
Y14814D01*
X114293D01*
Y16507D01*
Y11428D02*
X115986D01*
Y9736D01*
X114293D01*
Y11428D01*
X139685Y18199D02*
X137992Y19892D01*
X134607D01*
X132914Y18199D01*
Y11428D01*
X134607Y9736D01*
X137992D01*
X139685Y11428D01*
X143071Y19892D02*
Y9736D01*
Y14814D01*
X144764Y16507D01*
X148149D01*
X149842Y14814D01*
Y9736D01*
X154920D02*
X158306D01*
X159999Y11428D01*
Y14814D01*
X158306Y16507D01*
X154920D01*
X153228Y14814D01*
Y11428D01*
X154920Y9736D01*
X165077Y16507D02*
X168463D01*
X170155Y14814D01*
Y9736D01*
X165077D01*
X163384Y11428D01*
X165077Y13121D01*
X170155D01*
X173541Y9736D02*
X176927D01*
X175234D01*
Y16507D01*
X173541D01*
X182005Y19892D02*
Y9736D01*
X187083D01*
X188776Y11428D01*
Y13121D01*
Y14814D01*
X187083Y16507D01*
X182005D01*
X209090Y19892D02*
X202318D01*
Y9736D01*
X209090D01*
X202318Y14814D02*
X205704D01*
X212475Y19892D02*
Y9736D01*
X219246D01*
X222632D02*
Y19892D01*
X226017Y16507D01*
X229403Y19892D01*
Y9736D01*
X232789D02*
Y16507D01*
X236174Y19892D01*
X239560Y16507D01*
Y9736D01*
Y14814D01*
X232789D01*
X242945Y19892D02*
Y9736D01*
X248024D01*
X249716Y11428D01*
Y18199D01*
X248024Y19892D01*
X242945D01*
X253102D02*
X256488D01*
X254795D01*
Y9736D01*
X253102D01*
X256488D01*
X125476Y278976D02*
Y289132D01*
X130554D01*
X132247Y287439D01*
Y284054D01*
X130554Y282361D01*
X125476D01*
X135633Y285747D02*
Y280668D01*
X137325Y278976D01*
X142404D01*
Y277283D01*
X140711Y275590D01*
X139018D01*
X142404Y278976D02*
Y285747D01*
X147482Y287439D02*
Y285747D01*
X145789D01*
X149175D01*
X147482D01*
Y280668D01*
X149175Y278976D01*
X154253Y289132D02*
Y278976D01*
Y284054D01*
X155946Y285747D01*
X159332D01*
X161024Y284054D01*
Y278976D01*
X166103D02*
X169489D01*
X171181Y280668D01*
Y284054D01*
X169489Y285747D01*
X166103D01*
X164410Y284054D01*
Y280668D01*
X166103Y278976D01*
X174567D02*
Y285747D01*
X179645D01*
X181338Y284054D01*
Y278976D01*
X132501Y299423D02*
X125730D01*
X132501Y306194D01*
Y307887D01*
X130808Y309579D01*
X127423D01*
X125730Y307887D01*
X135887D02*
X137579Y309579D01*
X140965D01*
X142658Y307887D01*
Y306194D01*
X140965Y304501D01*
X139272D01*
X140965D01*
X142658Y302808D01*
Y301115D01*
X140965Y299423D01*
X137579D01*
X135887Y301115D01*
X146043Y299423D02*
X152815Y306194D01*
X162971Y299423D02*
X156200D01*
X162971Y306194D01*
Y307887D01*
X161278Y309579D01*
X157893D01*
X156200Y307887D01*
X171435Y299423D02*
Y309579D01*
X166357Y304501D01*
X173128D01*
X132501Y328250D02*
X130808Y329943D01*
X127423D01*
X125730Y328250D01*
Y326557D01*
X127423Y324864D01*
X130808D01*
X132501Y323172D01*
Y321479D01*
X130808Y319786D01*
X127423D01*
X125730Y321479D01*
X142658Y319786D02*
X135887D01*
X142658Y326557D01*
Y328250D01*
X140965Y329943D01*
X137579D01*
X135887Y328250D01*
X152815Y329943D02*
X146043D01*
Y319786D01*
X152815D01*
X146043Y324864D02*
X149429D01*
X162971Y328250D02*
X161278Y329943D01*
X157893D01*
X156200Y328250D01*
Y321479D01*
X157893Y319786D01*
X161278D01*
X162971Y321479D01*
X173128Y328250D02*
X171435Y329943D01*
X168050D01*
X166357Y328250D01*
Y326557D01*
X168050Y324864D01*
X171435D01*
X173128Y323172D01*
Y321479D01*
X171435Y319786D01*
X168050D01*
X166357Y321479D01*
X59354Y374652D02*
Y384808D01*
X64432D01*
X66125Y383116D01*
Y379730D01*
X64432Y378037D01*
X59354D01*
X76282Y374652D02*
X69511D01*
X76282Y381423D01*
Y383116D01*
X74589Y384808D01*
X71204D01*
X69511Y383116D01*
X59777Y468124D02*
Y478280D01*
X64855D01*
X66548Y476588D01*
Y473202D01*
X64855Y471509D01*
X59777D01*
X69934Y468124D02*
X73319D01*
X71626D01*
Y478280D01*
X69934Y476588D01*
X287613Y88136D02*
X284228D01*
X285920D01*
Y79672D01*
X284228Y77980D01*
X282535D01*
X280842Y79672D01*
X297770Y77980D02*
X290999D01*
X297770Y84751D01*
Y86444D01*
X296077Y88136D01*
X292692D01*
X290999Y86444D01*
X58928Y87374D02*
X55542D01*
X57235D01*
Y78910D01*
X55542Y77218D01*
X53850D01*
X52157Y78910D01*
X62314Y77218D02*
X65699D01*
X64006D01*
Y87374D01*
X62314Y85682D01*
D12*
X270256Y431882D02*
X271949Y433575D01*
X275334D01*
X277027Y431882D01*
Y430189D01*
X275334Y428496D01*
X277027Y426804D01*
Y425111D01*
X275334Y423418D01*
X271949D01*
X270256Y425111D01*
Y426804D01*
X271949Y428496D01*
X270256Y430189D01*
Y431882D01*
X271949Y428496D02*
X275334D01*
X286004Y319106D02*
X287697Y320799D01*
X291082D01*
X292775Y319106D01*
Y317413D01*
X291082Y315720D01*
X292775Y314028D01*
Y312335D01*
X291082Y310642D01*
X287697D01*
X286004Y312335D01*
Y314028D01*
X287697Y315720D01*
X286004Y317413D01*
Y319106D01*
X287697Y315720D02*
X291082D01*
X265938Y93726D02*
X269324D01*
X267631D01*
Y103883D01*
X265938Y102190D01*
X58166Y318090D02*
X59859Y319783D01*
X63244D01*
X64937Y318090D01*
Y316397D01*
X63244Y314704D01*
X64937Y313012D01*
Y311319D01*
X63244Y309626D01*
X59859D01*
X58166Y311319D01*
Y313012D01*
X59859Y314704D01*
X58166Y316397D01*
Y318090D01*
X59859Y314704D02*
X63244D01*
X82296Y93218D02*
X85682D01*
X83989D01*
Y103375D01*
X82296Y101682D01*
M02*
