%TF.GenerationSoftware,Altium Limited,Altium Designer,24.1.2 (44)*%
G04 Layer_Color=65535*
%FSLAX45Y45*%
%MOMM*%
%TF.SameCoordinates,ADAE1E34-4503-4B4E-A43C-A1B625E47364*%
%TF.FilePolarity,Positive*%
%TF.FileFunction,Legend,Top*%
%TF.Part,Single*%
G01*
G75*
%TA.AperFunction,NonConductor*%
%ADD15C,0.25400*%
%ADD16C,0.20000*%
%ADD17C,0.15240*%
D15*
X0Y0D02*
Y4978400D01*
X3505200D01*
Y0D02*
Y4978400D01*
X0Y0D02*
X3505200D01*
X1007511Y380967D02*
X939800D01*
Y279400D01*
X1007511D01*
X939800Y330183D02*
X973656D01*
X1109079Y364039D02*
X1092151Y380967D01*
X1058295D01*
X1041367Y364039D01*
Y347111D01*
X1058295Y330183D01*
X1092151D01*
X1109079Y313256D01*
Y296328D01*
X1092151Y279400D01*
X1058295D01*
X1041367Y296328D01*
X1142934Y279400D02*
Y380967D01*
X1193718D01*
X1210646Y364039D01*
Y330183D01*
X1193718Y313256D01*
X1142934D01*
X1244502Y364039D02*
X1261430Y380967D01*
X1295285D01*
X1312213Y364039D01*
Y347111D01*
X1295285Y330183D01*
X1278357D01*
X1295285D01*
X1312213Y313256D01*
Y296328D01*
X1295285Y279400D01*
X1261430D01*
X1244502Y296328D01*
X1413780Y279400D02*
X1346069D01*
X1413780Y347111D01*
Y364039D01*
X1396852Y380967D01*
X1362997D01*
X1346069Y364039D01*
X1447636Y330183D02*
X1515347D01*
X1616915Y364039D02*
X1599987Y380967D01*
X1566131D01*
X1549203Y364039D01*
Y296328D01*
X1566131Y279400D01*
X1599987D01*
X1616915Y296328D01*
X1650771Y279400D02*
Y347111D01*
X1684626Y380967D01*
X1718482Y347111D01*
Y279400D01*
Y330183D01*
X1650771D01*
X1752338Y279400D02*
Y380967D01*
X1786194Y347111D01*
X1820049Y380967D01*
Y279400D01*
X939800Y198923D02*
Y97356D01*
X990583D01*
X1007511Y114283D01*
Y131211D01*
Y148139D01*
X990583Y165067D01*
X939800D01*
X1041367D02*
Y114283D01*
X1058295Y97356D01*
X1109079D01*
Y80428D01*
X1092151Y63500D01*
X1075223D01*
X1109079Y97356D02*
Y165067D01*
X1142934D02*
X1159862D01*
Y148139D01*
X1142934D01*
Y165067D01*
Y114283D02*
X1159862D01*
Y97356D01*
X1142934D01*
Y114283D01*
X1396852Y181995D02*
X1379925Y198923D01*
X1346069D01*
X1329141Y181995D01*
Y114283D01*
X1346069Y97356D01*
X1379925D01*
X1396852Y114283D01*
X1430708Y198923D02*
Y97356D01*
Y148139D01*
X1447636Y165067D01*
X1481492D01*
X1498420Y148139D01*
Y97356D01*
X1549203D02*
X1583059D01*
X1599987Y114283D01*
Y148139D01*
X1583059Y165067D01*
X1549203D01*
X1532276Y148139D01*
Y114283D01*
X1549203Y97356D01*
X1650771Y165067D02*
X1684626D01*
X1701554Y148139D01*
Y97356D01*
X1650771D01*
X1633843Y114283D01*
X1650771Y131211D01*
X1701554D01*
X1735410Y97356D02*
X1769266D01*
X1752338D01*
Y165067D01*
X1735410D01*
X1820049Y198923D02*
Y97356D01*
X1870833D01*
X1887761Y114283D01*
Y131211D01*
Y148139D01*
X1870833Y165067D01*
X1820049D01*
X2090895Y198923D02*
X2023184D01*
Y97356D01*
X2090895D01*
X2023184Y148139D02*
X2057040D01*
X2124751Y198923D02*
Y97356D01*
X2192462D01*
X2226318D02*
Y198923D01*
X2260174Y165067D01*
X2294030Y198923D01*
Y97356D01*
X2327886D02*
Y165067D01*
X2361741Y198923D01*
X2395597Y165067D01*
Y97356D01*
Y148139D01*
X2327886D01*
X2429453Y198923D02*
Y97356D01*
X2480236D01*
X2497164Y114283D01*
Y181995D01*
X2480236Y198923D01*
X2429453D01*
X2531020D02*
X2564876D01*
X2547948D01*
Y97356D01*
X2531020D01*
X2564876D01*
X1254760Y2789756D02*
Y2891323D01*
X1305543D01*
X1322471Y2874395D01*
Y2840539D01*
X1305543Y2823611D01*
X1254760D01*
X1356327Y2857467D02*
Y2806683D01*
X1373255Y2789756D01*
X1424039D01*
Y2772828D01*
X1407111Y2755900D01*
X1390183D01*
X1424039Y2789756D02*
Y2857467D01*
X1474822Y2874395D02*
Y2857467D01*
X1457894D01*
X1491750D01*
X1474822D01*
Y2806683D01*
X1491750Y2789756D01*
X1542534Y2891323D02*
Y2789756D01*
Y2840539D01*
X1559462Y2857467D01*
X1593317D01*
X1610245Y2840539D01*
Y2789756D01*
X1661029D02*
X1694885D01*
X1711812Y2806683D01*
Y2840539D01*
X1694885Y2857467D01*
X1661029D01*
X1644101Y2840539D01*
Y2806683D01*
X1661029Y2789756D01*
X1745668D02*
Y2857467D01*
X1796452D01*
X1813380Y2840539D01*
Y2789756D01*
X1325011Y2994226D02*
X1257300D01*
X1325011Y3061937D01*
Y3078865D01*
X1308083Y3095793D01*
X1274228D01*
X1257300Y3078865D01*
X1358867D02*
X1375795Y3095793D01*
X1409651D01*
X1426579Y3078865D01*
Y3061937D01*
X1409651Y3045009D01*
X1392723D01*
X1409651D01*
X1426579Y3028081D01*
Y3011153D01*
X1409651Y2994226D01*
X1375795D01*
X1358867Y3011153D01*
X1460434Y2994226D02*
X1528146Y3061937D01*
X1629713Y2994226D02*
X1562002D01*
X1629713Y3061937D01*
Y3078865D01*
X1612785Y3095793D01*
X1578930D01*
X1562002Y3078865D01*
X1714352Y2994226D02*
Y3095793D01*
X1663569Y3045009D01*
X1731280D01*
X1325011Y3282499D02*
X1308083Y3299427D01*
X1274228D01*
X1257300Y3282499D01*
Y3265571D01*
X1274228Y3248643D01*
X1308083D01*
X1325011Y3231716D01*
Y3214788D01*
X1308083Y3197860D01*
X1274228D01*
X1257300Y3214788D01*
X1426579Y3197860D02*
X1358867D01*
X1426579Y3265571D01*
Y3282499D01*
X1409651Y3299427D01*
X1375795D01*
X1358867Y3282499D01*
X1528146Y3299427D02*
X1460434D01*
Y3197860D01*
X1528146D01*
X1460434Y3248643D02*
X1494290D01*
X1629713Y3282499D02*
X1612785Y3299427D01*
X1578930D01*
X1562002Y3282499D01*
Y3214788D01*
X1578930Y3197860D01*
X1612785D01*
X1629713Y3214788D01*
X1731280Y3282499D02*
X1714352Y3299427D01*
X1680497D01*
X1663569Y3282499D01*
Y3265571D01*
X1680497Y3248643D01*
X1714352D01*
X1731280Y3231716D01*
Y3214788D01*
X1714352Y3197860D01*
X1680497D01*
X1663569Y3214788D01*
X593541Y3746517D02*
Y3848084D01*
X644324D01*
X661252Y3831156D01*
Y3797300D01*
X644324Y3780372D01*
X593541D01*
X762819Y3746517D02*
X695108D01*
X762819Y3814228D01*
Y3831156D01*
X745892Y3848084D01*
X712036D01*
X695108Y3831156D01*
X597769Y4681237D02*
Y4782804D01*
X648552D01*
X665480Y4765876D01*
Y4732020D01*
X648552Y4715092D01*
X597769D01*
X699336Y4681237D02*
X733192D01*
X716264D01*
Y4782804D01*
X699336Y4765876D01*
X2876132Y881364D02*
X2842277D01*
X2859204D01*
Y796724D01*
X2842277Y779797D01*
X2825349D01*
X2808421Y796724D01*
X2977699Y779797D02*
X2909988D01*
X2977699Y847508D01*
Y864436D01*
X2960772Y881364D01*
X2926916D01*
X2909988Y864436D01*
X589280Y873744D02*
X555424D01*
X572352D01*
Y789104D01*
X555424Y772177D01*
X538497D01*
X521569Y789104D01*
X623136Y772177D02*
X656992D01*
X640064D01*
Y873744D01*
X623136Y856816D01*
D16*
X810500Y4412100D02*
X2872500D01*
X810500D02*
Y4681100D01*
X2872500D01*
Y4412100D02*
Y4681100D01*
X810500Y3888860D02*
X2872500D01*
X810500D02*
Y4157860D01*
X2872500D01*
Y3888860D02*
Y4157860D01*
X2760600Y940400D02*
X3030600D01*
Y3047400D01*
X2760600D02*
X3030600D01*
X2760600Y940400D02*
Y3047400D01*
X474600Y940400D02*
X744600D01*
Y3047400D01*
X474600D02*
X744600D01*
X474600Y940400D02*
Y3047400D01*
D17*
X2702560Y4318819D02*
X2719488Y4335747D01*
X2753343D01*
X2770271Y4318819D01*
Y4301891D01*
X2753343Y4284963D01*
X2770271Y4268036D01*
Y4251108D01*
X2753343Y4234180D01*
X2719488D01*
X2702560Y4251108D01*
Y4268036D01*
X2719488Y4284963D01*
X2702560Y4301891D01*
Y4318819D01*
X2719488Y4284963D02*
X2753343D01*
X2860040Y3191059D02*
X2876968Y3207987D01*
X2910823D01*
X2927751Y3191059D01*
Y3174131D01*
X2910823Y3157203D01*
X2927751Y3140276D01*
Y3123348D01*
X2910823Y3106420D01*
X2876968D01*
X2860040Y3123348D01*
Y3140276D01*
X2876968Y3157203D01*
X2860040Y3174131D01*
Y3191059D01*
X2876968Y3157203D02*
X2910823D01*
X2659380Y937260D02*
X2693236D01*
X2676308D01*
Y1038827D01*
X2659380Y1021899D01*
X581660Y3180899D02*
X598588Y3197827D01*
X632443D01*
X649371Y3180899D01*
Y3163971D01*
X632443Y3147043D01*
X649371Y3130116D01*
Y3113188D01*
X632443Y3096260D01*
X598588D01*
X581660Y3113188D01*
Y3130116D01*
X598588Y3147043D01*
X581660Y3163971D01*
Y3180899D01*
X598588Y3147043D02*
X632443D01*
X822960Y932180D02*
X856816D01*
X839888D01*
Y1033747D01*
X822960Y1016819D01*
%TF.MD5,f930baf0d8b59d9b936d11e3b621d205*%
M02*
