%TF.GenerationSoftware,Altium Limited,Altium Designer,24.1.2 (44)*%
G04 Layer_Color=255*
%FSLAX45Y45*%
%MOMM*%
%TF.SameCoordinates,5EC3BBD7-C06D-4BA5-B086-9FF2EE8CE176*%
%TF.FilePolarity,Positive*%
%TF.FileFunction,Pads,Top*%
%TF.Part,Single*%
G01*
G75*
%TA.AperFunction,ComponentPad*%
%ADD11C,1.60000*%
G04:AMPARAMS|DCode=12|XSize=1.6mm|YSize=1.6mm|CornerRadius=0.4mm|HoleSize=0mm|Usage=FLASHONLY|Rotation=0.000|XOffset=0mm|YOffset=0mm|HoleType=Round|Shape=RoundedRectangle|*
%AMROUNDEDRECTD12*
21,1,1.60000,0.80000,0,0,0.0*
21,1,0.80000,1.60000,0,0,0.0*
1,1,0.80000,0.40000,-0.40000*
1,1,0.80000,-0.40000,-0.40000*
1,1,0.80000,-0.40000,0.40000*
1,1,0.80000,0.40000,0.40000*
%
%ADD12ROUNDEDRECTD12*%
%ADD13C,1.52000*%
G04:AMPARAMS|DCode=14|XSize=1.52mm|YSize=1.52mm|CornerRadius=0.38mm|HoleSize=0mm|Usage=FLASHONLY|Rotation=90.000|XOffset=0mm|YOffset=0mm|HoleType=Round|Shape=RoundedRectangle|*
%AMROUNDEDRECTD14*
21,1,1.52000,0.76000,0,0,90.0*
21,1,0.76000,1.52000,0,0,90.0*
1,1,0.76000,0.38000,0.38000*
1,1,0.76000,0.38000,-0.38000*
1,1,0.76000,-0.38000,-0.38000*
1,1,0.76000,-0.38000,0.38000*
%
%ADD14ROUNDEDRECTD14*%
D11*
X2222500Y4546600D02*
D03*
X1714500D02*
D03*
X1206500D02*
D03*
X1460500D02*
D03*
X1968500D02*
D03*
X2476500D02*
D03*
X2730500D02*
D03*
X2222500Y4023360D02*
D03*
X1714500D02*
D03*
X1206500D02*
D03*
X1460500D02*
D03*
X1968500D02*
D03*
X2476500D02*
D03*
X2730500D02*
D03*
D12*
X952500Y4546600D02*
D03*
Y4023360D02*
D03*
D13*
X2895600Y2882900D02*
D03*
Y2628900D02*
D03*
Y1612900D02*
D03*
Y1358900D02*
D03*
Y1866900D02*
D03*
Y2120900D02*
D03*
Y2374900D02*
D03*
X609600Y2882900D02*
D03*
Y2628900D02*
D03*
Y1612900D02*
D03*
Y1358900D02*
D03*
Y1866900D02*
D03*
Y2120900D02*
D03*
Y2374900D02*
D03*
D14*
X2895600Y1104900D02*
D03*
X609600D02*
D03*
%TF.MD5,b168ead40464e9f21134d76e6c4ef304*%
M02*
