%TF.GenerationSoftware,Altium Limited,Altium Designer,24.1.2 (44)*%
G04 Layer_Color=8388736*
%FSLAX45Y45*%
%MOMM*%
%TF.SameCoordinates,ADAE1E34-4503-4B4E-A43C-A1B625E47364*%
%TF.FilePolarity,Negative*%
%TF.FileFunction,Soldermask,Top*%
%TF.Part,Single*%
G01*
G75*
%TA.AperFunction,ComponentPad*%
%ADD18C,1.80320*%
G04:AMPARAMS|DCode=19|XSize=1.8032mm|YSize=1.8032mm|CornerRadius=0.5016mm|HoleSize=0mm|Usage=FLASHONLY|Rotation=0.000|XOffset=0mm|YOffset=0mm|HoleType=Round|Shape=RoundedRectangle|*
%AMROUNDEDRECTD19*
21,1,1.80320,0.80000,0,0,0.0*
21,1,0.80000,1.80320,0,0,0.0*
1,1,1.00320,0.40000,-0.40000*
1,1,1.00320,-0.40000,-0.40000*
1,1,1.00320,-0.40000,0.40000*
1,1,1.00320,0.40000,0.40000*
%
%ADD19ROUNDEDRECTD19*%
%ADD20C,1.72320*%
G04:AMPARAMS|DCode=21|XSize=1.7232mm|YSize=1.7232mm|CornerRadius=0.4816mm|HoleSize=0mm|Usage=FLASHONLY|Rotation=90.000|XOffset=0mm|YOffset=0mm|HoleType=Round|Shape=RoundedRectangle|*
%AMROUNDEDRECTD21*
21,1,1.72320,0.76000,0,0,90.0*
21,1,0.76000,1.72320,0,0,90.0*
1,1,0.96320,0.38000,0.38000*
1,1,0.96320,0.38000,-0.38000*
1,1,0.96320,-0.38000,-0.38000*
1,1,0.96320,-0.38000,0.38000*
%
%ADD21ROUNDEDRECTD21*%
D18*
X2222500Y4546600D02*
D03*
X1714500D02*
D03*
X1206500D02*
D03*
X1460500D02*
D03*
X1968500D02*
D03*
X2476500D02*
D03*
X2730500D02*
D03*
X2222500Y4023360D02*
D03*
X1714500D02*
D03*
X1206500D02*
D03*
X1460500D02*
D03*
X1968500D02*
D03*
X2476500D02*
D03*
X2730500D02*
D03*
D19*
X952500Y4546600D02*
D03*
Y4023360D02*
D03*
D20*
X2895600Y2882900D02*
D03*
Y2628900D02*
D03*
Y1612900D02*
D03*
Y1358900D02*
D03*
Y1866900D02*
D03*
Y2120900D02*
D03*
Y2374900D02*
D03*
X609600Y2882900D02*
D03*
Y2628900D02*
D03*
Y1612900D02*
D03*
Y1358900D02*
D03*
Y1866900D02*
D03*
Y2120900D02*
D03*
Y2374900D02*
D03*
D21*
X2895600Y1104900D02*
D03*
X609600D02*
D03*
%TF.MD5,a4dae34e5369ba03c7e90683cf956092*%
M02*
