%TF.GenerationSoftware,Altium Limited,Altium Designer,24.1.2 (44)*%
G04 Layer_Color=128*
%FSLAX45Y45*%
%MOMM*%
%TF.SameCoordinates,5EC3BBD7-C06D-4BA5-B086-9FF2EE8CE176*%
%TF.FilePolarity,Positive*%
%TF.FileFunction,Drillmap*%
%TF.Part,Single*%
G01*
G75*
%TA.AperFunction,NonConductor*%
%ADD29C,0.12700*%
D29*
X2167500Y4546600D02*
X2277500D01*
X2222500Y4491600D02*
Y4601600D01*
X1659500Y4546600D02*
X1769500D01*
X1714500Y4491600D02*
Y4601600D01*
X1151500Y4546600D02*
X1261500D01*
X1206500Y4491600D02*
Y4601600D01*
X897500Y4546600D02*
X1007500D01*
X952500Y4491600D02*
Y4601600D01*
X1405500Y4546600D02*
X1515500D01*
X1460500Y4491600D02*
Y4601600D01*
X1913500Y4546600D02*
X2023500D01*
X1968500Y4491600D02*
Y4601600D01*
X2421500Y4546600D02*
X2531500D01*
X2476500Y4491600D02*
Y4601600D01*
X2675500Y4546600D02*
X2785500D01*
X2730500Y4491600D02*
Y4601600D01*
X2167500Y4023360D02*
X2277500D01*
X2222500Y3968360D02*
Y4078360D01*
X1659500Y4023360D02*
X1769500D01*
X1714500Y3968360D02*
Y4078360D01*
X1151500Y4023360D02*
X1261500D01*
X1206500Y3968360D02*
Y4078360D01*
X897500Y4023360D02*
X1007500D01*
X952500Y3968360D02*
Y4078360D01*
X1405500Y4023360D02*
X1515500D01*
X1460500Y3968360D02*
Y4078360D01*
X1913500Y4023360D02*
X2023500D01*
X1968500Y3968360D02*
Y4078360D01*
X2421500Y4023360D02*
X2531500D01*
X2476500Y3968360D02*
Y4078360D01*
X2675500Y4023360D02*
X2785500D01*
X2730500Y3968360D02*
Y4078360D01*
X2844600Y2882900D02*
X2946600D01*
X2895600Y2831900D02*
Y2933900D01*
X2844600Y2628900D02*
X2946600D01*
X2895600Y2577900D02*
Y2679900D01*
X2844600Y1612900D02*
X2946600D01*
X2895600Y1561900D02*
Y1663900D01*
X2844600Y1104900D02*
X2946600D01*
X2895600Y1053900D02*
Y1155900D01*
X2844600Y1358900D02*
X2946600D01*
X2895600Y1307900D02*
Y1409900D01*
X2844600Y1866900D02*
X2946600D01*
X2895600Y1815900D02*
Y1917900D01*
X2844600Y2120900D02*
X2946600D01*
X2895600Y2069900D02*
Y2171900D01*
X2844600Y2374900D02*
X2946600D01*
X2895600Y2323900D02*
Y2425900D01*
X558600Y2882900D02*
X660600D01*
X609600Y2831900D02*
Y2933900D01*
X558600Y2628900D02*
X660600D01*
X609600Y2577900D02*
Y2679900D01*
X558600Y1612900D02*
X660600D01*
X609600Y1561900D02*
Y1663900D01*
X558600Y1104900D02*
X660600D01*
X609600Y1053900D02*
Y1155900D01*
X558600Y1358900D02*
X660600D01*
X609600Y1307900D02*
Y1409900D01*
X558600Y1866900D02*
X660600D01*
X609600Y1815900D02*
Y1917900D01*
X558600Y2120900D02*
X660600D01*
X609600Y2069900D02*
Y2171900D01*
X558600Y2374900D02*
X660600D01*
X609600Y2323900D02*
Y2425900D01*
%TF.MD5,c959305c24db233e21d5d6bee2325cd3*%
M02*
