M48
;Layer_Color=9474304
;FILE_FORMAT=4:4
METRIC,LZ
;TYPE=PLATED
T01F00S00C1.0200
T02F00S00C1.1000
%
T01
X0006096Y0011049
Y0013589
X0028956
Y0011049
Y0016129
Y0018669
Y0021209
Y0023749
Y0026289
Y0028829
X0006096
Y0026289
Y0023749
Y0021209
Y0018669
Y0016129
T02
X0014605Y00402336
X0017145
X0019685
X0022225
X0024765
X0027305
Y0045466
X0024765
X0022225
X0019685
X0017145
X0014605
X0012065
X0009525
Y00402336
X0012065
M30
